<svg xmlns="http://www.w3.org/2000/svg" xml:space="preserve" viewBox="0 0 512 512">
  <path fill="#1e6b41" d="M503.607 512c-45.141 0-81.865-36.724-81.865-81.865v-52.85a8.392 8.392 0 0 1 8.393-8.393 8.393 8.393 0 0 1 8.393 8.393v52.85c0 35.884 29.194 65.078 65.078 65.078a8.393 8.393 0 0 1 8.393 8.393 8.391 8.391 0 0 1-8.392 8.394z"/>
  <circle cx="251.803" cy="251.803" r="222.449" fill="#8b7e7f"/>
  <circle cx="251.803" cy="251.803" r="144.11" fill="#1e6b41"/>
  <path fill="#c2b8b9" d="M251.803 0C112.736 0 0 112.736 0 251.803s112.736 251.803 251.803 251.803S503.607 390.87 503.607 251.803 390.87 0 251.803 0zM53.035 187.22c11.173-34.388 48.108-53.207 82.495-42.034 34.387 11.173 53.207 48.108 42.033 82.496s-48.108 53.207-82.495 42.034c-34.387-11.174-53.206-48.108-42.033-82.496zm167.37 219.182c-21.253 29.253-62.195 35.737-91.447 14.484-29.252-21.252-35.737-62.195-14.484-91.447 21.253-29.253 62.195-35.737 91.447-14.484 29.252 21.253 35.737 62.195 14.484 91.447zm-34.071-298.127c0-36.158 29.311-65.469 65.469-65.469s65.469 29.311 65.469 65.469-29.311 65.469-65.469 65.469-65.469-29.311-65.469-65.469zm188.315 312.61c-29.252 21.252-70.194 14.768-91.447-14.484-21.253-29.252-14.768-70.194 14.484-91.447 29.252-21.252 70.194-14.768 91.447 14.484 21.252 29.252 14.767 70.195-14.484 91.447zm33.888-151.169c-34.387 11.172-71.322-7.646-82.495-42.034s7.646-71.322 42.033-82.496c34.387-11.172 71.322 7.646 82.495 42.034 11.173 34.388-7.645 71.322-42.033 82.496z"/>
  <circle cx="251.803" cy="251.803" r="35.252" fill="#8b7e7f"/>
</svg>
